<?xml version="1.0" encoding="UTF-8"?>
<svg version="1.1" xmlns="http://www.w3.org/2000/svg" width="512" height="512">
<path d="M0 0 C0.8559375 0.66515625 1.711875 1.3303125 2.59375 2.015625 C7.81831349 6.11142478 12.78811638 10.43181341 17.6875 14.91015625 C19.64985514 16.68356841 21.64661409 18.38150245 23.6875 20.0625 C26.78401818 22.69921037 29.38750952 25.60569307 32.01171875 28.70703125 C33.4318996 30.34484295 34.89870739 31.94268981 36.39453125 33.51171875 C70.27489441 69.07865929 91.40286947 116.76367361 99 165 C99.12697266 165.75474609 99.25394531 166.50949219 99.38476562 167.28710938 C100.73766482 175.42717885 101.2235125 183.51129704 101.375 191.75 C101.40118408 192.60891846 101.42736816 193.46783691 101.4543457 194.3527832 C101.47047355 200.33263223 101.47047355 200.33263223 99.2265625 203.515625 C95.2447991 206.17013393 91.56947711 206.12650854 86.85804749 206.13371277 C85.59765152 206.13797775 84.33725555 206.14224274 83.03866577 206.14663696 C81.64434811 206.14628746 80.25003048 206.14582594 78.85571289 206.14526367 C77.38542088 206.14825625 75.91512966 206.15165901 74.44483948 206.15544128 C70.45312819 206.16427468 66.46143834 206.1666191 62.46971822 206.16725707 C59.13716132 206.16820687 55.8046094 206.17188593 52.47205442 206.17542917 C44.61002915 206.18357095 36.74801533 206.18601362 28.88598633 206.18530273 C20.77553899 206.18470176 12.66515813 206.19525814 4.55472761 206.2110464 C-2.40928331 206.22411994 -9.37327249 206.22948672 -16.33729559 206.22884732 C-20.49629495 206.22859231 -24.6552352 206.23144526 -28.81422234 206.24202538 C-32.72532495 206.25170341 -36.63631192 206.25178759 -40.54741859 206.24450874 C-41.98211206 206.24346259 -43.41681271 206.24582765 -44.85149384 206.2518692 C-46.81133592 206.25958721 -48.77121737 206.2537458 -50.73106384 206.24723816 C-51.82741118 206.24778293 -52.92375853 206.24832769 -54.05332851 206.24888897 C-57.95301371 205.91950423 -60.86341545 205.07744101 -63.7265625 202.36328125 C-65.48237707 199.10479102 -65.87714875 195.80289661 -66.375 192.1875 C-70.21227735 168.20001878 -81.75631112 148.11655256 -101 133 C-109.66505818 126.89904218 -118.862549 122.15250001 -129 119 C-130.01578125 118.68160156 -131.0315625 118.36320313 -132.078125 118.03515625 C-155.31301267 111.94581975 -180.42452756 115.96632376 -201.11328125 127.77734375 C-221.67245955 140.8168226 -236.06278776 160.00109348 -242.2734375 183.6015625 C-243.23360805 188.0926828 -243.85164828 192.59196358 -244.3125 197.16015625 C-245.16090839 200.66466138 -246.46375673 202.45922772 -249 205 C-252.34113961 206.19682342 -255.6058435 206.13085806 -259.12849426 206.14044189 C-261.01475273 206.14900711 -261.01475273 206.14900711 -262.93911743 206.15774536 C-264.33026113 206.15899063 -265.72140494 206.16011575 -267.11254883 206.16113281 C-268.5795962 206.16576284 -270.04664236 206.17078775 -271.51368713 206.17617798 C-275.49726386 206.18928586 -279.48082374 206.19574374 -283.46441865 206.20018864 C-285.95436151 206.20312185 -288.44429979 206.20722713 -290.93424034 206.21169281 C-298.72810431 206.22536326 -306.52195779 206.23503223 -314.31583291 206.2388947 C-323.30647957 206.24337503 -332.29697417 206.26092359 -341.28757459 206.2898953 C-348.24142575 206.31152435 -355.19523417 206.32159963 -362.1491186 206.32293582 C-366.30039264 206.32398294 -370.45152365 206.32987087 -374.60276222 206.34775543 C-378.50898514 206.36425741 -382.41495783 206.3663814 -386.32120323 206.35761642 C-387.75183661 206.35684719 -389.18248356 206.36117374 -390.61308289 206.37107468 C-404.26572609 206.45999296 -404.26572609 206.45999296 -410 203 C-419.57108604 183.85782793 -405.57649712 144.01029815 -399.42895508 125.03344727 C-387.35711195 89.0508635 -368.03522379 53.99266804 -340.47265625 27.47265625 C-338.76334088 25.81385258 -338.76334088 25.81385258 -336.5625 23 C-333.34790405 19.2365706 -329.7730184 16.1892452 -326 13 C-325.08476562 12.19691406 -324.16953125 11.39382812 -323.2265625 10.56640625 C-289.63596272 -18.74942082 -249.46041883 -37.61731232 -206 -47 C-205.23768066 -47.16725586 -204.47536133 -47.33451172 -203.68994141 -47.50683594 C-134.59702494 -62.17390106 -55.16027932 -44.19468162 0 0 Z " fill="#FEDF7D" transform="translate(411,179)"/>
<path d="M0 0 C1.04027344 0.55171875 2.08054687 1.1034375 3.15234375 1.671875 C24.73565036 13.5838182 43.03834428 32.1765181 56 53 C56.41572266 53.66741211 56.83144531 54.33482422 57.25976562 55.02246094 C69.06080404 74.30501892 77.12039194 95.92351246 79.125 118.5 C79.21136719 119.38558594 79.29773438 120.27117187 79.38671875 121.18359375 C79.90723346 126.81010992 80.04079049 132.35181912 80 138 C72.39374043 138.0463992 64.78749558 138.08190771 57.18112659 138.10362434 C53.64893904 138.11404876 50.11684852 138.1281833 46.5847168 138.15087891 C42.52131229 138.17682394 38.45800926 138.18648387 34.39453125 138.1953125 C33.1297847 138.20563507 31.86503815 138.21595764 30.56196594 138.22659302 C29.38111923 138.22674408 28.20027252 138.22689514 26.98364258 138.22705078 C25.42810417 138.23371262 25.42810417 138.23371262 23.84114075 138.24050903 C19.99215125 137.91468331 17.09765494 137.04053715 14.2734375 134.36328125 C12.51762293 131.10479102 12.12285125 127.80289661 11.625 124.1875 C7.78772265 100.20001878 -3.75631112 80.11655256 -23 65 C-31.66505818 58.89904218 -40.862549 54.15250001 -51 51 C-52.01578125 50.68160156 -53.0315625 50.36320312 -54.078125 50.03515625 C-77.31301267 43.94581975 -102.42452756 47.96632376 -123.11328125 59.77734375 C-143.67245955 72.8168226 -158.06278776 92.00109348 -164.2734375 115.6015625 C-165.23360805 120.0926828 -165.85164828 124.59196358 -166.3125 129.16015625 C-167.16090839 132.66466138 -168.46375673 134.45922772 -171 137 C-174.27143791 138.1642729 -177.42209594 138.12089296 -180.87011719 138.11352539 C-182.05103943 138.11344986 -183.23196167 138.11337433 -184.44866943 138.11329651 C-185.71857727 138.10813522 -186.98848511 138.10297394 -188.296875 138.09765625 C-189.60078186 138.0962413 -190.90468872 138.09482635 -192.24810791 138.09336853 C-195.70703055 138.08955867 -199.16591091 138.07974151 -202.62481689 138.06866455 C-206.15742419 138.05841746 -209.69003836 138.05386385 -213.22265625 138.04882812 C-220.14845482 138.03811782 -227.07422538 138.02105984 -234 138 C-234.23160722 121.12870099 -234.23160722 121.12870099 -232.75 113.5 C-232.61505127 112.80334229 -232.48010254 112.10668457 -232.34106445 111.38891602 C-231.91636387 109.25386315 -231.46378496 107.12687722 -231 105 C-230.85546387 104.32437012 -230.71092773 103.64874023 -230.56201172 102.95263672 C-224.4042619 74.75518876 -210.99257705 49.82283357 -191 29 C-190.12085938 28.05769531 -189.24171875 27.11539063 -188.3359375 26.14453125 C-139.83554938 -24.9194607 -60.62331641 -33.32589014 0 0 Z " fill="#8BB3E9" transform="translate(333,247)"/>
<path d="M0 0 C0.8559375 0.66515625 1.711875 1.3303125 2.59375 2.015625 C7.81831349 6.11142478 12.78811638 10.43181341 17.6875 14.91015625 C19.64985514 16.68356841 21.64661409 18.38150245 23.6875 20.0625 C26.78401818 22.69921037 29.38750952 25.60569307 32.01171875 28.70703125 C33.4318996 30.34484295 34.89870739 31.94268981 36.39453125 33.51171875 C70.27489441 69.07865929 91.40286947 116.76367361 99 165 C99.12697266 165.75474609 99.25394531 166.50949219 99.38476562 167.28710938 C100.73766482 175.42717885 101.2235125 183.51129704 101.375 191.75 C101.40118408 192.60891846 101.42736816 193.46783691 101.4543457 194.3527832 C101.47047355 200.33263223 101.47047355 200.33263223 99.2265625 203.515625 C95.318625 206.12091667 91.76498166 206.12124991 87.140625 206.09765625 C86.02558594 206.09443359 84.91054688 206.09121094 83.76171875 206.08789062 C82.60285156 206.07951172 81.44398438 206.07113281 80.25 206.0625 C78.48849609 206.05573242 78.48849609 206.05573242 76.69140625 206.04882812 C73.79421928 206.03705094 70.89713546 206.02060326 68 206 C67.97421875 204.86949219 67.9484375 203.73898437 67.921875 202.57421875 C66.01029006 142.03004019 41.90968543 85.68105043 -1.515625 43.29296875 C-5.8374319 39.30413125 -10.37905698 35.63430924 -15 32 C-15.97453125 31.20851563 -16.9490625 30.41703125 -17.953125 29.6015625 C-44.48747908 8.46741616 -76.86812229 -6.09800531 -110 -13 C-111.18130493 -13.25402588 -111.18130493 -13.25402588 -112.38647461 -13.51318359 C-138.72910732 -19.02800825 -167.61754543 -19.07471075 -194 -14 C-195.20527344 -13.7834375 -196.41054687 -13.566875 -197.65234375 -13.34375 C-213.53132717 -10.23095045 -229.19642328 -5.52494897 -244 1 C-244.98830811 1.42853271 -244.98830811 1.42853271 -245.99658203 1.86572266 C-289.7163249 20.95636763 -325.57933055 54.65979508 -349 96 C-349.51191895 96.88824463 -349.51191895 96.88824463 -350.03417969 97.79443359 C-368.95801973 130.79797281 -376.82537172 168.29038175 -378 206 C-382.02069425 206.08765069 -386.0411401 206.14061018 -390.0625 206.1875 C-391.7630957 206.22520508 -391.7630957 206.22520508 -393.49804688 206.26367188 C-399.76082441 206.31844835 -404.53380633 206.20218154 -410 203 C-419.57108604 183.85782793 -405.57649712 144.01029815 -399.42895508 125.03344727 C-387.35711195 89.0508635 -368.03522379 53.99266804 -340.47265625 27.47265625 C-338.76334088 25.81385258 -338.76334088 25.81385258 -336.5625 23 C-333.34790405 19.2365706 -329.7730184 16.1892452 -326 13 C-325.08476562 12.19691406 -324.16953125 11.39382812 -323.2265625 10.56640625 C-289.63596272 -18.74942082 -249.46041883 -37.61731232 -206 -47 C-205.23768066 -47.16725586 -204.47536133 -47.33451172 -203.68994141 -47.50683594 C-134.59702494 -62.17390106 -55.16027932 -44.19468162 0 0 Z " fill="#FF8086" transform="translate(411,179)"/>
<path d="M0 0 C0.68980957 0.13921875 1.37961914 0.2784375 2.09033203 0.421875 C6.78631089 1.40881875 11.39999314 2.63435659 16 4 C17.19810303 4.35553955 17.19810303 4.35553955 18.42041016 4.71826172 C44.4387686 12.59946442 67.75886603 24.73929352 88 43 C89.37415442 44.16766252 90.74904855 45.33445561 92.125 46.5 C126.89316363 77.3321451 151.00798653 123.32458989 154 170 C154.17348803 176.00764249 154.09320753 181.9881145 154 188 C143.11 188 132.22 188 121 188 C120.608125 183.441875 120.21625 178.88375 119.8125 174.1875 C118.65603714 162.04987875 116.85656623 150.5888856 113 139 C112.66959717 137.9780957 112.66959717 137.9780957 112.33251953 136.93554688 C104.98693188 114.59471821 92.37198374 94.77130042 76 78 C74.76056641 76.65035156 74.76056641 76.65035156 73.49609375 75.2734375 C56.92485054 57.71550958 35.84449898 46.41928574 13.20068359 38.75024414 C11.75456224 38.25724093 10.31435782 37.74645935 8.88134766 37.21655273 C-26.9887158 24.31292125 -70.12370572 30.12134148 -104 46 C-119.47894016 53.55460015 -132.48923604 63.18760404 -145 75 C-146.28970703 76.175625 -146.28970703 76.175625 -147.60546875 77.375 C-178.38956983 106.5155055 -190.42826492 146.85223876 -193 188 C-203.89 188 -214.78 188 -226 188 C-226 134.86206748 -205.70239625 88.01205664 -168.625 50.3125 C-141.44463274 23.29878372 -105.53828023 5.77892194 -68 -1 C-66.89914063 -1.20625 -65.79828125 -1.4125 -64.6640625 -1.625 C-43.62261155 -4.91130037 -20.83272628 -4.238713 0 0 Z " fill="#AEDA81" transform="translate(292,197)"/>
<path d="M0 0 C15.56804963 14.03974677 27.89171937 33.64486414 34 53.74609375 C34.27328125 54.58785156 34.5465625 55.42960937 34.828125 56.296875 C38.33093093 67.88704167 39.16181272 79.70833387 39 91.74609375 C34.77089131 91.80426581 30.54188591 91.83974838 26.3125 91.87109375 C25.11431641 91.88785156 23.91613281 91.90460938 22.68164062 91.921875 C21.52470703 91.92832031 20.36777344 91.93476563 19.17578125 91.94140625 C17.58117065 91.9571167 17.58117065 91.9571167 15.9543457 91.97314453 C12.04431379 91.67264625 9.14197932 90.8286488 6.2734375 88.109375 C4.51762293 84.85088477 4.12285125 81.54899036 3.625 77.93359375 C-0.21227735 53.94611253 -11.75631112 33.86264631 -31 18.74609375 C-39.66505818 12.64513593 -48.862549 7.89859376 -59 4.74609375 C-60.01578125 4.42769531 -61.0315625 4.10929687 -62.078125 3.78125 C-85.31301267 -2.3080865 -110.42452756 1.71241751 -131.11328125 13.5234375 C-151.67245955 26.56291635 -166.06278776 45.74718723 -172.2734375 69.34765625 C-173.23360805 73.83877655 -173.85164828 78.33805733 -174.3125 82.90625 C-175.16090839 86.41075513 -176.46375673 88.20532147 -179 90.74609375 C-182.33146024 91.94238242 -185.565698 91.86096778 -189.078125 91.84375 C-190.23828125 91.84052734 -191.3984375 91.83730469 -192.59375 91.83398438 C-193.8003125 91.82560547 -195.006875 91.81722656 -196.25 91.80859375 C-197.47203125 91.80408203 -198.6940625 91.79957031 -199.953125 91.79492188 C-202.96879946 91.7831419 -205.98437498 91.76669228 -209 91.74609375 C-209.38914089 57.32088218 -196.41642177 27.83870891 -173 2.74609375 C-124.99429248 -45.25961377 -49.78146189 -43.71814054 0 0 Z " fill="#C2AEEF" transform="translate(341,293.25390625)"/>
<path d="M0 0 C1.16917969 -0.01224609 2.33835937 -0.02449219 3.54296875 -0.03710938 C32.65063001 -0.0855683 58.51386097 11.88265423 79 32.1875 C79.87914062 33.05375 80.75828125 33.92 81.6640625 34.8125 C98.51141439 52.33791869 109.31404625 77.72501383 109.0625 102.125 C109.05347656 103.26839844 109.04445313 104.41179687 109.03515625 105.58984375 C109.01775391 106.87568359 109.01775391 106.87568359 109 108.1875 C99.0625 108.57720588 99.0625 108.57720588 95 106.1875 C91.64121751 102.735418 91.25629153 98.95944015 90.625 94.375 C86.78772265 70.38751878 75.24368888 50.30405256 56 35.1875 C47.33494182 29.08654218 38.137451 24.34000001 28 21.1875 C26.98421875 20.86910156 25.9684375 20.55070312 24.921875 20.22265625 C1.68698733 14.13331975 -23.42452756 18.15382376 -44.11328125 29.96484375 C-64.67245955 43.0043226 -79.06278776 62.18859348 -85.2734375 85.7890625 C-86.23360805 90.2801828 -86.85164828 94.77946358 -87.3125 99.34765625 C-88.16090839 102.85216138 -89.46375673 104.64672772 -92 107.1875 C-94.87914749 108.37946706 -97.65691924 108.29548648 -100.75 108.25 C-101.54921875 108.24097656 -102.3484375 108.23195313 -103.171875 108.22265625 C-103.77515625 108.21105469 -104.3784375 108.19945312 -105 108.1875 C-106.40140429 82.14473692 -97.18381962 56.99259739 -79.95898438 37.40698242 C-62.30509647 18.04017357 -42.42110022 6.73717681 -17 1.1875 C-16.08879395 0.92271851 -16.08879395 0.92271851 -15.15917969 0.65258789 C-10.23020156 -0.40911534 -5.01960597 0.00269581 0 0 Z " fill="#AC8EEB" transform="translate(254,276.8125)"/>
</svg>
